# xmcd CD database file
#
# Track frame offsets:
#	150
#	19492
#	43215
#
# Disc length: 796 seconds
#
# Revision: 0
# Processed by: cddbd v1.5.1PL0 Copyright (c) Steve Scherf et al.
# Submitted via: CDex 1.51
#
DISCID=24031a03
DTITLE=湯川潮音 - 緑のアーチ／裸の王様
DYEAR=2005
DGENRE=Japanese Pop
TTITLE0=緑のアーチ
TTITLE1=裸の王様
TTITLE2=ひなげしの丘
EXTD=YEAR: 2005
EXTT0=
EXTT1=
EXTT2=
PLAYORDER=
